<svg version="1.1" xmlns="http://www.w3.org/2000/svg" xmlns:xlink="http://www.w3.org/1999/xlink" width="48px" height="48px" viewBox="0,0,256,256"><g fill="none" fill-rule="nonzero" stroke="none" stroke-width="1" stroke-linecap="butt" stroke-linejoin="miter" stroke-miterlimit="10" stroke-dasharray="" stroke-dashoffset="0" font-family="none" font-weight="none" font-size="none" text-anchor="none" style="mix-blend-mode: normal"><g transform="scale(5.33333,5.33333)"><path d="M24,43l-5,-12c0,0 -11,1.99 -11,13h16.888c-0.263,-0.455 -0.507,-0.921 -0.719,-1.407z" fill="#4355ba"></path><path d="M32.25,35.45c0.32,-0.965 0.931,-1.797 1.723,-2.404c-2.564,-1.598 -4.973,-2.046 -4.973,-2.046l-4.831,11.593c0.212,0.485 0.455,0.952 0.719,1.407h5.112c0,0 2.088,-8.063 2.25,-8.55z" fill="#303f9f"></path><path d="M24,37l-5,-6v-6h10v6z" fill="#ff9800"></path><path d="M35,19c0,1.106 -0.896,2 -2,2c-1.106,0 -2,-0.894 -2,-2c0,-1.105 0.894,-2 2,-2c1.104,0 2,0.895 2,2M17,19c0,-1.105 -0.896,-2 -2,-2c-1.106,0 -2,0.895 -2,2c0,1.106 0.894,2 2,2c1.104,0 2,-0.894 2,-2" fill="#ffa726"></path><path d="M33,13c0,-7.635 -18,-4.971 -18,0v7c0,4.971 4.028,9 9,9c4.971,0 9,-4.029 9,-9z" fill="#ffb74d"></path><path d="M24,4c-6.075,0 -10,4.926 -10,11v2.285l2,1.715v-5l12,-4l4,4v5l2,-1.742v-2.258c0,-4.025 -1.038,-8.016 -6,-9l-1,-2z" fill="#424242"></path><path d="M27,19c0,-0.551 0.448,-1 1,-1c0.552,0 1,0.449 1,1c0,0.551 -0.448,1 -1,1c-0.552,0 -1,-0.449 -1,-1M19,19c0,0.551 0.448,1 1,1c0.552,0 1,-0.449 1,-1c0,-0.551 -0.448,-1 -1,-1c-0.552,0 -1,0.449 -1,1" fill="#784719"></path><path d="M24,43l-5,-12l5,1l5,-1z" fill="#ffffff"></path><path d="M25,35l0.62,4.13l-0.49,1.17l-1.13,2.7l-1.62,-3.88l0.62,-4.12l-1,-1l2,-2l2,2z" fill="#d32f2f"></path><path d="M45.2,38.1c0.1,-0.4 0.1,-0.8 0.1,-1.1c0,-0.3 0,-0.8 -0.1,-1.1l2.3,-1.7c0.2,-0.2 0.3,-0.5 0.2,-0.7l-2.3,-3.9c-0.1,-0.2 -0.4,-0.3 -0.7,-0.2l-2.6,1.2c-0.6,-0.5 -1.3,-0.9 -2,-1.2l-0.3,-2.9c0,-0.3 -0.3,-0.5 -0.5,-0.5h-4.6c-0.2,0 -0.5,0.2 -0.5,0.5l-0.3,2.9c-0.7,0.2 -1.4,0.6 -2,1.1l-2.6,-1.2c-0.3,-0.1 -0.6,0 -0.7,0.2l-2.3,4c-0.1,0.2 0,0.5 0.2,0.7l2.3,1.7c-0.1,0.4 -0.1,0.8 -0.1,1.1c0,0.3 0,0.8 0.1,1.1l-2.3,1.7c-0.2,0.2 -0.3,0.5 -0.2,0.7l2.3,3.9c0.1,0.2 0.4,0.3 0.7,0.2l2.6,-1.2c0.6,0.5 1.3,0.9 2,1.2l0.3,2.9c0,0.3 0.3,0.5 0.5,0.5h4.5c0.3,0 0.5,-0.2 0.5,-0.5l0.3,-2.9c0.7,-0.3 1.4,-0.7 2,-1.2l2.6,1.2c0.3,0.1 0.6,0 0.7,-0.2l2.3,-3.9c0.1,-0.2 0.1,-0.6 -0.2,-0.7zM37,42.2c-2.9,0 -5.2,-2.3 -5.2,-5.2c0,-2.9 2.3,-5.2 5.2,-5.2c2.9,0 5.2,2.3 5.2,5.2c0,2.9 -2.3,5.2 -5.2,5.2" fill="#607d8b"></path><path d="M37,31c-3.3,0 -6,2.7 -6,6c0,3.3 2.7,6 6,6c3.3,0 6,-2.7 6,-6c0,-3.3 -2.7,-6 -6,-6M37,40c-1.7,0 -3,-1.3 -3,-3c0,-1.7 1.3,-3 3,-3c1.7,0 3,1.3 3,3c0,1.7 -1.3,3 -3,3" fill="#455a64"></path></g></g></svg>