<svg version="1.1" xmlns="http://www.w3.org/2000/svg" xmlns:xlink="http://www.w3.org/1999/xlink" width="48px" height="48px" viewBox="0,0,256,256"><g fill="none" fill-rule="nonzero" stroke="none" stroke-width="1" stroke-linecap="butt" stroke-linejoin="miter" stroke-miterlimit="10" stroke-dasharray="" stroke-dashoffset="0" font-family="none" font-weight="none" font-size="none" text-anchor="none" style="mix-blend-mode: normal"><g transform="scale(5.33333,5.33333)"><path d="M7.047,37.323c-0.007,-9.596 -0.111,-19.196 -0.289,-28.791c-0.012,-0.643 -1.012,-0.645 -1,0c0.178,9.595 0.283,19.195 0.289,28.791c0,0.643 1,0.644 1,0z" fill="#020202"></path><path d="M6.714,37.917c12.167,0 24.333,0 36.5,0c0.643,0 0.645,-1 0,-1c-12.167,0 -24.333,0 -36.5,0c-0.644,0 -0.645,1 0,1z" fill="#020202"></path><path d="M40.409,34.724c1.146,1.04 2.363,1.993 3.646,2.858c0.535,0.36 1.036,-0.506 0.505,-0.863c-1.214,-0.817 -2.361,-1.717 -3.444,-2.701c-0.475,-0.433 -1.184,0.272 -0.707,0.706z" fill="#020202"></path><path d="M44.211,36.902c-1.276,0.781 -2.552,1.561 -3.828,2.342c-0.548,0.335 -0.046,1.201 0.505,0.863c1.276,-0.781 2.552,-1.561 3.828,-2.342c0.548,-0.335 0.046,-1.2 -0.505,-0.863z" fill="#020202"></path><path d="M4.263,10.744c0.435,-0.431 0.869,-0.863 1.304,-1.294c0.387,-0.384 0.827,-1.002 1.3,-1.271c-0.168,0 -0.336,0 -0.505,0c0.982,0.503 1.883,1.688 2.638,2.483c0.444,0.467 1.151,-0.24 0.707,-0.707c-0.608,-0.64 -1.232,-1.259 -1.888,-1.849c-0.3,-0.27 -0.735,-0.858 -1.205,-0.858c-0.434,0 -0.759,0.507 -1.03,0.777c-0.676,0.671 -1.352,1.342 -2.029,2.013c-0.457,0.453 0.25,1.16 0.708,0.706z" fill="#020202"></path><path d="M17.297,37.167h-7v-17l6.396,0.156z" fill="#f3ad20"></path><path d="M37.297,37.167h-7v-21h6z" fill="#ef4823"></path><path d="M27.297,36.896h-7v-24h6z" fill="#f58420"></path><path d="M11.134,37.161c-0.154,-3.946 -0.229,-7.89 -0.264,-11.838c-0.008,-0.854 -0.557,-4.104 -0.083,-4.705c0.31,-0.394 2.245,-0.186 2.672,-0.197c0.97,-0.024 2.25,-0.333 2.756,0.469c0.461,0.731 0.184,2.926 0.231,3.808c0.076,1.429 0.139,2.859 0.19,4.289c0.051,1.43 0.091,2.861 0.118,4.292c0.005,0.269 0.199,3.57 0.425,3.318c-0.329,0.367 -2.975,0.03 -3.463,0.035c-1.027,0.01 -2.055,0.021 -3.082,0.031c-0.643,0.006 -0.645,1.006 0,1c2.221,-0.022 4.442,-0.044 6.663,-0.067c0.269,-0.003 0.501,-0.227 0.5,-0.5c-0.031,-5.726 -0.247,-11.444 -0.649,-17.156c-0.02,-0.279 -0.214,-0.487 -0.5,-0.5c-2.127,-0.097 -4.254,0.028 -6.381,0.072c-0.264,0.006 -0.509,0.225 -0.5,0.5c0.182,5.716 0.144,11.434 0.367,17.15c0.025,0.64 1.025,0.644 1,-0.001z" fill="#020202"></path><path d="M21.155,37.176c-0.308,-6.639 -0.478,-13.284 -0.488,-19.93c-0.002,-1.31 -0.51,-3.093 0.904,-3.463c0.554,-0.145 3.985,-0.173 4.376,0.229c0.52,0.535 0.098,3.204 0.082,3.954c-0.033,1.566 -0.032,3.133 -0.015,4.7c0.025,2.433 0.083,4.865 0.139,7.297c0.043,1.882 -0.431,4.625 0.128,6.409c0.171,0.545 0.726,0.464 -0.195,0.379c-0.698,-0.065 -1.422,-0.02 -2.123,-0.029c-1.102,-0.015 -2.205,-0.03 -3.307,-0.046c-0.644,-0.009 -0.644,0.991 0,1c2.044,0.028 4.087,0.056 6.131,0.085c0.27,0.004 0.501,-0.232 0.5,-0.5c-0.03,-7.972 -0.383,-15.915 -0.112,-23.889c0.009,-0.274 -0.237,-0.495 -0.5,-0.5c-2.165,-0.038 -4.33,-0.076 -6.495,-0.114c-0.272,-0.005 -0.498,0.233 -0.5,0.5c-0.052,7.976 0.107,15.95 0.476,23.918c0.029,0.641 1.029,0.644 0.999,0z" fill="#020202"></path><path d="M37.559,37.429c-0.481,-7.138 0.261,-14.302 -0.701,-21.413c-0.028,-0.206 -0.285,-0.376 -0.482,-0.367c-1.983,0.09 -3.966,0.179 -5.95,0.269c-0.277,0.012 -0.491,0.219 -0.5,0.5c-0.225,6.958 -0.077,13.915 0.048,20.873c0.005,0.274 0.225,0.494 0.5,0.5c2.195,0.046 4.39,0.092 6.585,0.138c0.644,0.013 0.644,-0.987 0,-1c-1.098,-0.023 -2.195,-0.046 -3.293,-0.069c-0.689,-0.014 -1.378,-0.029 -2.067,-0.043c-0.218,-0.005 -0.625,0.079 -0.826,-0.017c-0.543,-0.259 0.059,0.28 -0.135,-0.241c-0.004,-0.01 0.184,-2.051 0.182,-2.152c-0.012,-0.635 -0.023,-1.271 -0.034,-1.906c-0.027,-1.576 -0.052,-3.152 -0.068,-4.728c-0.031,-3.116 0.275,-6.342 0.05,-9.444c0.001,0.012 -0.185,-1.698 -0.39,-1.413c0.049,-0.068 0.46,0.011 0.543,-0.025c0.503,-0.212 1.598,-0.072 2.132,-0.096c0.728,-0.033 1.563,-0.193 2.285,-0.103c1.211,0.151 0.722,-0.135 0.674,1.377c-0.101,3.187 0.31,6.461 0.282,9.669c-0.028,3.234 -0.054,6.461 0.164,9.691c0.044,0.639 1.045,0.644 1.001,0z" fill="#020202"></path></g></g></svg>