<svg version="1.1" xmlns="http://www.w3.org/2000/svg" xmlns:xlink="http://www.w3.org/1999/xlink" width="100px" height="100px" viewBox="0,0,256,256"><g fill="none" fill-rule="nonzero" stroke="none" stroke-width="1" stroke-linecap="butt" stroke-linejoin="miter" stroke-miterlimit="10" stroke-dasharray="" stroke-dashoffset="0" font-family="none" font-weight="none" font-size="none" text-anchor="none" style="mix-blend-mode: normal"><g transform="scale(2.56,2.56)"><path d="M32.665,49.344c-0.098,-0.127 -0.665,-0.756 -0.665,-0.756v-3.647c0,-6.157 -4.947,-10.941 -10.971,-10.941c-0.01,0 -0.019,0.001 -0.029,0.001c-0.01,0 -0.019,-0.001 -0.029,-0.001c-6.024,0 -10.971,4.784 -10.971,10.941v3.647c0,0 -0.567,0.629 -0.665,0.756c-0.163,0.215 -0.318,0.541 -0.334,0.99c-0.01,0.271 0.642,3.695 0.831,4.283c0.208,0.66 0.624,1.201 1.168,1.383v0.49c0,1.216 0.569,2.394 0.993,3.039c1.272,1.937 3.199,3.355 5.007,4.263c0,0.07 0,0.138 0,0.208c0,2.031 -2,2.75 -2,2.75c0,0 1,4.25 6,4.25c5,0 6,-4.25 6,-4.25c0,0 -2,-0.75 -2,-2.75c0,-0.07 0,-0.138 0,-0.208c1.808,-0.908 3.736,-2.326 5.007,-4.263c0.424,-0.645 0.993,-1.823 0.993,-3.039v-0.49c0.544,-0.182 0.96,-0.723 1.168,-1.384c0.189,-0.588 0.841,-4.012 0.831,-4.283c-0.017,-0.448 -0.171,-0.774 -0.334,-0.989z" fill="#a77a61"></path><path d="M36.974,73.641l-0.006,-0.006c-0.517,-2.292 -2.155,-4.188 -4.378,-5.054l-5.59,-1.831l-0.867,-0.253l-0.006,0.015c-0.009,0.015 -0.985,1.488 -5.127,1.488c-4.134,0 -5.115,-1.467 -5.125,-1.482l-0.018,-0.018l-0.857,0.25l-5.59,1.832c-2.223,0.867 -3.861,2.762 -4.378,5.054l-0.006,0.006c-0.153,0.698 0.387,1.358 1.115,1.358h29.719c0.727,0 1.267,-0.66 1.114,-1.359z" fill="#00ac9c"></path><path d="M11.5,51c-0.164,0 -0.321,-0.081 -0.416,-0.222c-2.021,-1.659 -3.084,-4.18 -3.084,-7.278c0,-6.145 5.041,-12.5 13.478,-12.5c4.334,0 6.794,1.912 7.667,3.66c2.831,0.429 4.855,4.073 4.855,8.84c0,5.075 -3.08,7.315 -3.211,7.408c-0.154,0.108 -0.354,0.122 -0.522,0.034c-0.167,-0.088 -0.27,-0.262 -0.267,-0.45c0,-0.031 0.019,-3.14 -1.999,-5.411c-1.265,-1.422 -1.733,-2.449 -1.905,-3.448c-1.294,2.298 -3.516,4.367 -6.596,4.367c-0.192,0 -0.367,-0.11 -0.451,-0.283c-0.083,-0.173 -0.06,-0.379 0.06,-0.529c1.054,-1.317 1.598,-2.798 1.798,-3.844c-3.375,1.88 -5.945,6.355 -5.972,6.403c-0.077,0.136 -0.213,0.228 -0.368,0.249c-0.151,0.02 -0.311,-0.032 -0.42,-0.142c-0.034,-0.034 -0.633,-0.646 -0.952,-1.829c-1.179,2.372 -1.195,4.451 -1.195,4.475c0,0.22 -0.144,0.415 -0.354,0.479c-0.049,0.014 -0.098,0.021 -0.146,0.021z" fill="#565fa1"></path><path d="M20.971,65c-1.934,0 -6.587,-1.828 -8.978,-5.471l0.836,-0.549c2.131,3.249 6.497,5.02 8.142,5.02c1.712,0 6.038,-1.724 8.201,-5.02l0.836,0.549c-2.391,3.643 -7.083,5.471 -9.037,5.471z" fill="#1f212b"></path><path d="M35.859,76h-29.718c-0.656,0 -1.266,-0.291 -1.674,-0.8c-0.403,-0.501 -0.555,-1.147 -0.417,-1.773c0.007,-0.032 0.016,-0.064 0.026,-0.096c0.613,-2.585 2.466,-4.705 4.971,-5.681l5.642,-1.851c0.018,-0.008 1.057,-0.415 1.272,-1.425c-1.538,-0.852 -3.447,-2.229 -4.804,-4.297c-0.266,-0.405 -1.123,-1.836 -1.156,-3.489c-0.503,-0.377 -0.897,-0.956 -1.123,-1.673c-0.176,-0.548 -0.894,-4.123 -0.876,-4.619c0.027,-0.74 0.307,-1.256 0.538,-1.559c0.108,-0.141 0.718,-0.82 0.718,-0.82l1.485,1.34c-0.001,0.002 -0.51,0.563 -0.617,0.698c-0.05,0.065 -0.117,0.197 -0.125,0.413c0.031,0.341 0.628,3.458 0.783,3.941c0.137,0.437 0.366,0.686 0.533,0.741c0.408,0.138 0.683,0.52 0.683,0.95v0.49c0,0.906 0.428,1.88 0.829,2.49c1.009,1.538 2.65,2.93 4.62,3.919c0.338,0.17 0.551,0.516 0.551,0.894v0.207c0,2.703 -2.553,3.652 -2.662,3.691l-5.617,1.841c-1.861,0.727 -3.269,2.35 -3.714,4.324c0,0.002 -0.001,0.005 -0.002,0.007c0.041,0.11 0.077,0.137 0.136,0.137h29.719c0.061,0 0.096,-0.028 0.115,-0.053l0.04,-0.012c-0.009,-0.026 -0.016,-0.053 -0.022,-0.079c-0.446,-1.975 -1.854,-3.598 -3.766,-4.343l-5.539,-1.813c-0.147,-0.054 -2.688,-1.038 -2.688,-3.7v-0.207c0,-0.378 0.213,-0.724 0.551,-0.894c1.97,-0.989 3.611,-2.381 4.62,-3.919c0.4,-0.61 0.829,-1.584 0.829,-2.49v-0.49c0,-0.43 0.275,-0.813 0.683,-0.948c0.167,-0.056 0.396,-0.305 0.531,-0.735c0.157,-0.49 0.754,-3.607 0.786,-4.017c-0.009,-0.146 -0.076,-0.278 -0.13,-0.351c-0.096,-0.125 -0.545,-0.726 -0.545,-0.726l1.602,-1.197c0,0 0.436,0.583 0.532,0.708c0.233,0.307 0.514,0.822 0.541,1.563c0.018,0.496 -0.7,4.071 -0.878,4.625c-0.224,0.713 -0.618,1.291 -1.121,1.667c-0.033,1.653 -0.89,3.084 -1.156,3.489c-1.357,2.067 -3.266,3.445 -4.804,4.297c0.222,1.018 1.299,1.435 1.312,1.438l5.55,1.818c2.558,0.995 4.411,3.116 5.023,5.702c0.01,0.03 0.019,0.062 0.025,0.093c0.138,0.626 -0.014,1.272 -0.417,1.773c-0.409,0.51 -1.019,0.801 -1.675,0.801z" fill="#1f212b"></path><path d="M23.5,68.785c-0.236,0 -0.445,-0.167 -0.491,-0.407c-0.051,-0.271 0.127,-0.533 0.398,-0.584c2.137,-0.403 2.716,-1.275 2.722,-1.284c0.145,-0.227 0.446,-0.305 0.678,-0.168c0.232,0.136 0.318,0.425 0.191,0.662c-0.028,0.051 -0.705,1.263 -3.405,1.772c-0.031,0.006 -0.063,0.009 -0.093,0.009z" fill="#1f212b"></path><path d="M21,69c-4.834,0 -5.945,-1.9 -5.99,-1.98c-0.134,-0.242 -0.047,-0.546 0.194,-0.681c0.237,-0.129 0.534,-0.051 0.671,0.181c0.033,0.047 1.041,1.48 5.125,1.48c0.131,0 0.252,-0.004 0.375,-0.008l0.111,-0.004c0.255,-0.013 0.506,0.209 0.515,0.485c0.008,0.275 -0.209,0.506 -0.485,0.515l-0.108,0.003c-0.134,0.005 -0.266,0.009 -0.408,0.009z" fill="#1f212b"></path><path d="M29.536,47c-0.185,0 -0.363,-0.103 -0.45,-0.28c-0.157,-0.321 -0.341,-0.637 -0.546,-0.938c-0.155,-0.229 -0.096,-0.539 0.132,-0.694c0.228,-0.156 0.54,-0.097 0.695,0.132c0.231,0.341 0.439,0.697 0.618,1.062c0.121,0.248 0.019,0.547 -0.229,0.669c-0.071,0.032 -0.147,0.049 -0.22,0.049z" fill="#1f212b"></path><path d="M27.412,44c-0.163,0 -0.323,-0.079 -0.419,-0.226c-0.528,-0.807 -0.776,-1.495 -0.893,-2.171c-0.358,0.631 -0.773,1.229 -1.222,1.748c-0.18,0.21 -0.496,0.231 -0.705,0.053c-0.209,-0.181 -0.232,-0.496 -0.052,-0.705c1.155,-1.339 1.716,-2.794 1.904,-3.357c0.078,-0.233 0.315,-0.378 0.554,-0.335c0.243,0.039 0.421,0.248 0.421,0.493v0.248c-0.003,1.326 -0.005,2.202 0.831,3.478c0.151,0.231 0.086,0.541 -0.145,0.692c-0.085,0.056 -0.18,0.082 -0.274,0.082z" fill="#1f212b"></path><path d="M11.5,51c-0.164,0 -0.321,-0.081 -0.416,-0.222c-2.021,-1.66 -3.084,-4.18 -3.084,-7.278c0,-6.145 5.042,-12.5 13.478,-12.5c4.334,0 6.794,1.912 7.667,3.659c2.831,0.43 4.855,4.074 4.855,8.841c0,5.075 -3.08,7.315 -3.211,7.408c-0.154,0.108 -0.355,0.121 -0.521,0.034c-0.166,-0.087 -0.27,-0.261 -0.268,-0.449c0,-0.008 0.007,-0.808 -0.243,-1.88c-0.063,-0.269 0.104,-0.537 0.373,-0.601c0.271,-0.063 0.538,0.104 0.601,0.374c0.09,0.385 0.15,0.737 0.19,1.04c0.827,-0.92 2.079,-2.824 2.079,-5.926c0,-4.395 -1.778,-7.707 -4.227,-7.876c-0.19,-0.014 -0.356,-0.134 -0.428,-0.31c-0.625,-1.529 -2.799,-3.314 -6.867,-3.314c-7.811,0 -12.478,5.847 -12.478,11.5c0,1.751 0.381,4.122 2.091,5.938c0.168,-1.184 0.644,-3.192 1.993,-5.215c0.122,-0.184 0.351,-0.265 0.561,-0.201c0.211,0.063 0.355,0.257 0.355,0.478c0,0.954 0.245,1.646 0.474,2.083c0.972,-1.524 3.573,-5.194 6.835,-6.545c0.154,-0.063 0.33,-0.047 0.469,0.046c0.139,0.093 0.222,0.249 0.222,0.416c0,1.079 -0.463,2.806 -1.464,4.402c0.594,-0.114 1.169,-0.328 1.718,-0.639c0.239,-0.138 0.545,-0.053 0.682,0.188c0.136,0.24 0.052,0.546 -0.188,0.682c-1.016,0.575 -2.108,0.867 -3.248,0.867c-0.192,0 -0.367,-0.11 -0.451,-0.283c-0.083,-0.174 -0.06,-0.379 0.06,-0.529c1.054,-1.316 1.598,-2.799 1.798,-3.845c-3.375,1.881 -5.945,6.355 -5.972,6.404c-0.077,0.136 -0.213,0.228 -0.368,0.248c-0.149,0.02 -0.31,-0.03 -0.42,-0.142c-0.034,-0.034 -0.633,-0.646 -0.952,-1.829c-1.179,2.373 -1.195,4.452 -1.195,4.476c0,0.22 -0.144,0.414 -0.354,0.479c-0.049,0.014 -0.098,0.021 -0.146,0.021z" fill="#1f212b"></path><path d="M61.665,60.344c-0.098,-0.127 -0.665,-0.756 -0.665,-0.756v-3.647c0,-6.157 -4.947,-10.941 -10.971,-10.941c-0.01,0 -0.019,0.001 -0.029,0.001c-0.01,0 -0.019,-0.001 -0.029,-0.001c-6.024,0 -10.971,4.784 -10.971,10.941v3.647c0,0 -0.567,0.629 -0.665,0.756c-0.163,0.215 -0.318,0.541 -0.334,0.99c-0.01,0.271 0.642,3.695 0.831,4.283c0.208,0.66 0.625,1.201 1.168,1.383v0.49c0,1.216 0.569,2.394 0.993,3.039c1.272,1.937 3.199,3.355 5.007,4.263c0,0.07 0,0.138 0,0.208c0,2.031 -2,2.75 -2,2.75c0,0 1,4.25 6,4.25c5,0 6,-4.25 6,-4.25c0,0 -2,-0.75 -2,-2.75c0,-0.07 0,-0.138 0,-0.208c1.808,-0.908 3.736,-2.326 5.007,-4.263c0.424,-0.645 0.993,-1.823 0.993,-3.039v-0.49c0.544,-0.182 0.96,-0.723 1.168,-1.384c0.189,-0.588 0.841,-4.012 0.831,-4.283c-0.016,-0.448 -0.171,-0.774 -0.334,-0.989z" fill="#ead6c7"></path><path d="M65.974,84.641l-0.006,-0.006c-0.517,-2.292 -2.155,-4.188 -4.378,-5.054l-5.59,-1.831l-0.867,-0.253l-0.006,0.015c-0.009,0.015 -0.985,1.488 -5.127,1.488c-4.134,0 -5.115,-1.467 -5.125,-1.482l-0.018,-0.018l-0.857,0.25l-5.59,1.832c-2.223,0.867 -3.861,2.762 -4.378,5.054l-0.006,0.006c-0.153,0.698 0.387,1.358 1.115,1.358h29.719c0.727,0 1.267,-0.66 1.114,-1.359z" fill="#00ac9c"></path><path d="M40.5,62c-0.164,0 -0.321,-0.081 -0.416,-0.222c-2.021,-1.659 -3.084,-4.18 -3.084,-7.278c0,-6.145 5.042,-12.5 13.478,-12.5c4.334,0 6.794,1.912 7.667,3.66c2.831,0.429 4.855,4.073 4.855,8.84c0,5.075 -3.08,7.315 -3.211,7.408c-0.154,0.108 -0.354,0.122 -0.522,0.034c-0.167,-0.088 -0.27,-0.262 -0.267,-0.45c0,-0.031 0.019,-3.14 -1.999,-5.411c-1.265,-1.422 -1.733,-2.449 -1.905,-3.448c-1.294,2.298 -3.516,4.367 -6.596,4.367c-0.192,0 -0.367,-0.11 -0.451,-0.283c-0.083,-0.173 -0.06,-0.379 0.06,-0.529c1.054,-1.317 1.598,-2.798 1.798,-3.844c-3.375,1.88 -5.945,6.355 -5.972,6.403c-0.077,0.136 -0.213,0.228 -0.368,0.249c-0.151,0.02 -0.311,-0.032 -0.42,-0.142c-0.034,-0.034 -0.633,-0.646 -0.952,-1.829c-1.179,2.372 -1.195,4.451 -1.195,4.475c0,0.22 -0.144,0.415 -0.354,0.479c-0.049,0.014 -0.098,0.021 -0.146,0.021z" fill="#eba272"></path><path d="M49.971,76c-1.934,0 -6.587,-1.828 -8.978,-5.471l0.836,-0.549c2.131,3.249 6.497,5.02 8.142,5.02c1.712,0 6.038,-1.724 8.201,-5.02l0.836,0.549c-2.391,3.643 -7.083,5.471 -9.037,5.471z" fill="#1f212b"></path><path d="M64.859,87h-29.718c-0.656,0 -1.266,-0.291 -1.674,-0.8c-0.403,-0.501 -0.555,-1.147 -0.417,-1.773c0.007,-0.032 0.016,-0.064 0.026,-0.096c0.613,-2.585 2.466,-4.705 4.971,-5.681l5.642,-1.851c0.018,-0.008 1.057,-0.415 1.272,-1.425c-1.538,-0.852 -3.447,-2.229 -4.804,-4.297c-0.266,-0.405 -1.123,-1.836 -1.156,-3.489c-0.503,-0.377 -0.897,-0.956 -1.123,-1.673c-0.176,-0.548 -0.894,-4.123 -0.876,-4.619c0.027,-0.74 0.307,-1.256 0.538,-1.559c0.108,-0.141 0.718,-0.82 0.718,-0.82l1.485,1.34c-0.001,0.002 -0.51,0.563 -0.617,0.698c-0.05,0.065 -0.117,0.197 -0.125,0.413c0.031,0.341 0.628,3.458 0.783,3.941c0.137,0.437 0.366,0.686 0.533,0.741c0.408,0.138 0.683,0.52 0.683,0.95v0.49c0,0.906 0.428,1.88 0.829,2.49c1.009,1.538 2.65,2.93 4.62,3.919c0.338,0.17 0.551,0.516 0.551,0.894v0.207c0,2.703 -2.553,3.652 -2.662,3.691l-5.617,1.841c-1.861,0.727 -3.269,2.35 -3.714,4.324c0,0.002 -0.001,0.005 -0.002,0.007c0.041,0.11 0.077,0.137 0.136,0.137h29.719c0.061,0 0.096,-0.028 0.115,-0.053l0.04,-0.012c-0.009,-0.026 -0.016,-0.053 -0.022,-0.079c-0.446,-1.975 -1.854,-3.598 -3.766,-4.343l-5.539,-1.813c-0.147,-0.054 -2.688,-1.038 -2.688,-3.7v-0.207c0,-0.378 0.213,-0.724 0.551,-0.894c1.97,-0.989 3.611,-2.381 4.62,-3.919c0.4,-0.61 0.829,-1.584 0.829,-2.49v-0.49c0,-0.43 0.275,-0.813 0.683,-0.948c0.167,-0.056 0.396,-0.305 0.531,-0.735c0.157,-0.49 0.754,-3.607 0.786,-4.017c-0.009,-0.146 -0.076,-0.278 -0.13,-0.351c-0.096,-0.125 -0.545,-0.726 -0.545,-0.726l1.602,-1.197c0,0 0.436,0.583 0.532,0.708c0.233,0.307 0.514,0.822 0.541,1.563c0.018,0.496 -0.7,4.071 -0.878,4.625c-0.224,0.713 -0.618,1.291 -1.121,1.667c-0.033,1.653 -0.89,3.084 -1.156,3.489c-1.357,2.067 -3.266,3.445 -4.804,4.297c0.222,1.018 1.299,1.435 1.312,1.438l5.55,1.818c2.558,0.995 4.411,3.116 5.023,5.702c0.01,0.03 0.019,0.062 0.025,0.093c0.138,0.626 -0.014,1.272 -0.417,1.773c-0.409,0.51 -1.019,0.801 -1.675,0.801z" fill="#1f212b"></path><path d="M52.5,79.785c-0.236,0 -0.445,-0.167 -0.491,-0.407c-0.051,-0.271 0.127,-0.533 0.398,-0.584c2.137,-0.403 2.716,-1.275 2.722,-1.284c0.145,-0.227 0.447,-0.305 0.678,-0.168c0.232,0.136 0.318,0.425 0.191,0.662c-0.028,0.051 -0.705,1.263 -3.405,1.772c-0.031,0.006 -0.063,0.009 -0.093,0.009z" fill="#1f212b"></path><path d="M50,80c-4.834,0 -5.945,-1.9 -5.99,-1.98c-0.134,-0.242 -0.047,-0.546 0.194,-0.681c0.236,-0.129 0.533,-0.051 0.671,0.181c0.033,0.047 1.041,1.48 5.125,1.48c0.131,0 0.252,-0.004 0.375,-0.008l0.111,-0.004c0.268,0.014 0.506,0.209 0.515,0.485c0.008,0.275 -0.209,0.506 -0.485,0.515l-0.108,0.003c-0.134,0.005 -0.266,0.009 -0.408,0.009z" fill="#1f212b"></path><path d="M58.536,58c-0.185,0 -0.363,-0.103 -0.45,-0.28c-0.157,-0.321 -0.341,-0.637 -0.546,-0.938c-0.155,-0.229 -0.096,-0.539 0.132,-0.694c0.229,-0.156 0.539,-0.097 0.695,0.132c0.231,0.341 0.439,0.697 0.618,1.062c0.121,0.248 0.019,0.547 -0.229,0.669c-0.071,0.032 -0.147,0.049 -0.22,0.049z" fill="#1f212b"></path><path d="M56.412,55c-0.163,0 -0.323,-0.079 -0.419,-0.226c-0.528,-0.807 -0.776,-1.495 -0.893,-2.171c-0.358,0.631 -0.773,1.229 -1.222,1.748c-0.181,0.21 -0.497,0.23 -0.705,0.053c-0.209,-0.181 -0.232,-0.496 -0.052,-0.705c1.155,-1.339 1.716,-2.794 1.904,-3.357c0.078,-0.233 0.315,-0.377 0.554,-0.335c0.243,0.039 0.421,0.248 0.421,0.493v0.248c-0.003,1.326 -0.005,2.202 0.831,3.478c0.151,0.231 0.086,0.541 -0.145,0.692c-0.085,0.056 -0.18,0.082 -0.274,0.082z" fill="#1f212b"></path><path d="M40.5,62c-0.164,0 -0.321,-0.081 -0.416,-0.222c-2.021,-1.66 -3.084,-4.18 -3.084,-7.278c0,-6.145 5.042,-12.5 13.478,-12.5c4.334,0 6.794,1.912 7.667,3.659c2.831,0.43 4.855,4.074 4.855,8.841c0,5.075 -3.08,7.315 -3.211,7.408c-0.154,0.107 -0.355,0.121 -0.521,0.034c-0.166,-0.087 -0.27,-0.261 -0.268,-0.449c0,-0.008 0.007,-0.808 -0.243,-1.88c-0.063,-0.269 0.104,-0.537 0.373,-0.601c0.273,-0.062 0.538,0.104 0.601,0.374c0.09,0.385 0.15,0.737 0.19,1.04c0.827,-0.92 2.079,-2.824 2.079,-5.926c0,-4.395 -1.778,-7.707 -4.227,-7.876c-0.19,-0.014 -0.356,-0.134 -0.428,-0.31c-0.625,-1.529 -2.799,-3.314 -6.867,-3.314c-7.811,0 -12.478,5.847 -12.478,11.5c0,1.751 0.381,4.122 2.091,5.938c0.168,-1.184 0.644,-3.192 1.993,-5.215c0.122,-0.183 0.351,-0.265 0.561,-0.201c0.211,0.063 0.355,0.257 0.355,0.478c0,0.954 0.245,1.646 0.474,2.083c0.972,-1.524 3.573,-5.194 6.835,-6.545c0.154,-0.064 0.331,-0.047 0.469,0.046c0.138,0.093 0.222,0.249 0.222,0.416c0,1.079 -0.463,2.806 -1.464,4.402c0.594,-0.114 1.169,-0.328 1.718,-0.639c0.239,-0.138 0.545,-0.053 0.682,0.188c0.137,0.241 0.052,0.546 -0.188,0.682c-1.016,0.575 -2.108,0.867 -3.248,0.867c-0.192,0 -0.367,-0.11 -0.451,-0.283c-0.083,-0.174 -0.06,-0.379 0.06,-0.529c1.054,-1.316 1.598,-2.799 1.798,-3.845c-3.375,1.881 -5.945,6.355 -5.972,6.404c-0.077,0.136 -0.213,0.228 -0.368,0.248c-0.152,0.021 -0.31,-0.03 -0.42,-0.142c-0.034,-0.034 -0.633,-0.646 -0.952,-1.829c-1.179,2.373 -1.195,4.452 -1.195,4.476c0,0.22 -0.144,0.414 -0.354,0.479c-0.049,0.014 -0.098,0.021 -0.146,0.021z" fill="#1f212b"></path><path d="M90.665,49.344c-0.098,-0.127 -0.665,-0.756 -0.665,-0.756v-3.647c0,-6.157 -4.947,-10.941 -10.971,-10.941c-0.01,0 -0.019,0.001 -0.029,0.001c-0.01,0 -0.019,-0.001 -0.029,-0.001c-6.024,0 -10.971,4.784 -10.971,10.941v3.647c0,0 -0.567,0.629 -0.665,0.756c-0.163,0.215 -0.318,0.541 -0.334,0.99c-0.01,0.271 0.642,3.695 0.831,4.283c0.208,0.66 0.624,1.201 1.168,1.383v0.49c0,1.216 0.569,2.394 0.993,3.039c1.272,1.937 3.199,3.355 5.007,4.263c0,0.07 0,0.138 0,0.208c0,2.031 -2,2.75 -2,2.75c0,0 1,4.25 6,4.25c5,0 6,-4.25 6,-4.25c0,0 -2,-0.75 -2,-2.75c0,-0.07 0,-0.138 0,-0.208c1.808,-0.908 3.736,-2.326 5.007,-4.263c0.424,-0.645 0.993,-1.823 0.993,-3.039v-0.49c0.544,-0.182 0.96,-0.723 1.168,-1.384c0.189,-0.588 0.841,-4.012 0.831,-4.283c-0.017,-0.448 -0.171,-0.774 -0.334,-0.989z" fill="#ccac94"></path><path d="M94.974,73.641l-0.006,-0.006c-0.517,-2.292 -2.155,-4.188 -4.378,-5.054l-5.59,-1.831l-0.867,-0.253l-0.006,0.015c-0.009,0.015 -0.985,1.488 -5.127,1.488c-4.134,0 -5.115,-1.467 -5.125,-1.482l-0.018,-0.018l-0.857,0.25l-5.59,1.832c-2.223,0.867 -3.861,2.762 -4.378,5.054l-0.006,0.006c-0.153,0.698 0.387,1.358 1.115,1.358h29.719c0.727,0 1.267,-0.66 1.114,-1.359z" fill="#eddc67"></path><path d="M69.5,51c-0.164,0 -0.321,-0.081 -0.416,-0.222c-2.021,-1.659 -3.084,-4.18 -3.084,-7.278c0,-6.145 5.041,-12.5 13.478,-12.5c4.334,0 6.794,1.912 7.667,3.66c2.831,0.429 4.855,4.073 4.855,8.84c0,5.075 -3.08,7.315 -3.211,7.408c-0.154,0.108 -0.354,0.122 -0.522,0.034c-0.167,-0.088 -0.27,-0.262 -0.267,-0.45c0,-0.031 0.019,-3.14 -1.999,-5.411c-1.265,-1.422 -1.733,-2.449 -1.905,-3.448c-1.294,2.298 -3.516,4.367 -6.596,4.367c-0.192,0 -0.367,-0.11 -0.451,-0.283c-0.083,-0.173 -0.06,-0.379 0.06,-0.529c1.054,-1.317 1.598,-2.798 1.798,-3.844c-3.375,1.88 -5.945,6.355 -5.972,6.403c-0.077,0.136 -0.213,0.228 -0.368,0.249c-0.151,0.02 -0.311,-0.032 -0.42,-0.142c-0.034,-0.034 -0.633,-0.646 -0.952,-1.829c-1.179,2.372 -1.195,4.451 -1.195,4.475c0,0.22 -0.144,0.415 -0.354,0.479c-0.049,0.014 -0.098,0.021 -0.146,0.021z" fill="#565fa1"></path><path d="M78.971,65c-1.934,0 -6.587,-1.828 -8.978,-5.471l0.836,-0.549c2.131,3.249 6.497,5.02 8.142,5.02c1.712,0 6.038,-1.724 8.201,-5.02l0.836,0.549c-2.391,3.643 -7.083,5.471 -9.037,5.471z" fill="#1f212b"></path><path d="M93.859,76h-29.718c-0.656,0 -1.266,-0.291 -1.674,-0.8c-0.403,-0.501 -0.555,-1.147 -0.417,-1.773c0.007,-0.032 0.016,-0.064 0.026,-0.096c0.613,-2.585 2.466,-4.705 4.971,-5.681l5.642,-1.851c0.018,-0.008 1.057,-0.415 1.272,-1.425c-1.538,-0.852 -3.447,-2.229 -4.804,-4.297c-0.266,-0.405 -1.123,-1.836 -1.156,-3.489c-0.503,-0.377 -0.897,-0.956 -1.123,-1.673c-0.176,-0.548 -0.894,-4.123 -0.876,-4.619c0.027,-0.74 0.307,-1.256 0.538,-1.559c0.108,-0.141 0.718,-0.82 0.718,-0.82l1.485,1.34c-0.001,0.002 -0.51,0.563 -0.617,0.698c-0.05,0.065 -0.117,0.197 -0.125,0.413c0.031,0.341 0.628,3.458 0.783,3.941c0.137,0.437 0.366,0.686 0.533,0.741c0.408,0.138 0.683,0.52 0.683,0.95v0.49c0,0.906 0.428,1.88 0.829,2.49c1.009,1.538 2.65,2.93 4.62,3.919c0.338,0.17 0.551,0.516 0.551,0.894v0.207c0,2.703 -2.553,3.652 -2.662,3.691l-5.617,1.841c-1.861,0.727 -3.269,2.35 -3.714,4.324c0,0.002 -0.001,0.005 -0.002,0.007c0.041,0.11 0.077,0.137 0.136,0.137h29.719c0.061,0 0.096,-0.028 0.115,-0.053l0.04,-0.012c-0.009,-0.026 -0.016,-0.053 -0.022,-0.079c-0.446,-1.975 -1.854,-3.598 -3.766,-4.343l-5.539,-1.813c-0.147,-0.054 -2.688,-1.038 -2.688,-3.7v-0.207c0,-0.378 0.213,-0.724 0.551,-0.894c1.97,-0.989 3.611,-2.381 4.62,-3.919c0.4,-0.61 0.829,-1.584 0.829,-2.49v-0.49c0,-0.43 0.275,-0.813 0.683,-0.948c0.167,-0.056 0.396,-0.305 0.531,-0.735c0.157,-0.49 0.754,-3.607 0.786,-4.017c-0.009,-0.146 -0.076,-0.278 -0.13,-0.351c-0.096,-0.125 -0.545,-0.726 -0.545,-0.726l1.602,-1.197c0,0 0.436,0.583 0.532,0.708c0.233,0.307 0.514,0.822 0.541,1.563c0.018,0.496 -0.7,4.071 -0.878,4.625c-0.224,0.713 -0.618,1.291 -1.121,1.667c-0.033,1.653 -0.89,3.084 -1.156,3.489c-1.357,2.067 -3.266,3.445 -4.804,4.297c0.222,1.018 1.299,1.435 1.312,1.438l5.55,1.818c2.558,0.995 4.411,3.116 5.023,5.702c0.01,0.03 0.019,0.062 0.025,0.093c0.138,0.626 -0.014,1.272 -0.417,1.773c-0.409,0.51 -1.019,0.801 -1.675,0.801z" fill="#1f212b"></path><path d="M81.5,68.785c-0.236,0 -0.445,-0.167 -0.491,-0.407c-0.051,-0.271 0.127,-0.533 0.398,-0.584c2.137,-0.403 2.716,-1.275 2.722,-1.284c0.145,-0.227 0.447,-0.305 0.678,-0.168c0.232,0.136 0.318,0.425 0.191,0.662c-0.028,0.051 -0.705,1.263 -3.405,1.772c-0.031,0.006 -0.063,0.009 -0.093,0.009z" fill="#1f212b"></path><path d="M79,69c-4.834,0 -5.945,-1.9 -5.99,-1.98c-0.134,-0.242 -0.047,-0.546 0.194,-0.681c0.236,-0.129 0.533,-0.051 0.671,0.181c0.033,0.047 1.041,1.48 5.125,1.48c0.131,0 0.252,-0.004 0.375,-0.008l0.111,-0.004c0.256,-0.013 0.506,0.209 0.515,0.485c0.008,0.275 -0.209,0.506 -0.485,0.515l-0.108,0.003c-0.134,0.005 -0.266,0.009 -0.408,0.009z" fill="#1f212b"></path><path d="M87.536,47c-0.185,0 -0.363,-0.103 -0.45,-0.28c-0.157,-0.321 -0.341,-0.637 -0.546,-0.938c-0.155,-0.229 -0.096,-0.539 0.132,-0.694c0.228,-0.156 0.539,-0.097 0.695,0.132c0.231,0.341 0.439,0.697 0.618,1.062c0.121,0.248 0.019,0.547 -0.229,0.669c-0.071,0.032 -0.147,0.049 -0.22,0.049z" fill="#1f212b"></path><path d="M85.412,44c-0.163,0 -0.323,-0.079 -0.419,-0.226c-0.528,-0.807 -0.776,-1.495 -0.893,-2.171c-0.358,0.631 -0.773,1.229 -1.222,1.748c-0.181,0.21 -0.496,0.231 -0.705,0.053c-0.209,-0.181 -0.232,-0.496 -0.052,-0.705c1.155,-1.339 1.716,-2.794 1.904,-3.357c0.078,-0.233 0.314,-0.378 0.554,-0.335c0.243,0.039 0.421,0.248 0.421,0.493v0.248c-0.003,1.326 -0.005,2.202 0.831,3.478c0.151,0.231 0.086,0.541 -0.145,0.692c-0.085,0.056 -0.18,0.082 -0.274,0.082z" fill="#1f212b"></path><path d="M69.5,51c-0.164,0 -0.321,-0.081 -0.416,-0.222c-2.021,-1.66 -3.084,-4.18 -3.084,-7.278c0,-6.145 5.042,-12.5 13.478,-12.5c4.334,0 6.794,1.912 7.667,3.659c2.831,0.43 4.855,4.074 4.855,8.841c0,5.075 -3.08,7.315 -3.211,7.408c-0.154,0.108 -0.355,0.121 -0.521,0.034c-0.166,-0.087 -0.27,-0.261 -0.268,-0.449c0,-0.008 0.007,-0.808 -0.243,-1.88c-0.063,-0.269 0.104,-0.537 0.373,-0.601c0.271,-0.063 0.538,0.104 0.601,0.374c0.09,0.385 0.15,0.737 0.19,1.04c0.827,-0.92 2.079,-2.824 2.079,-5.926c0,-4.395 -1.778,-7.707 -4.227,-7.876c-0.19,-0.014 -0.356,-0.134 -0.428,-0.31c-0.625,-1.529 -2.799,-3.314 -6.867,-3.314c-7.811,0 -12.478,5.847 -12.478,11.5c0,1.751 0.381,4.122 2.091,5.938c0.168,-1.184 0.644,-3.192 1.993,-5.215c0.122,-0.184 0.352,-0.265 0.561,-0.201c0.211,0.063 0.355,0.257 0.355,0.478c0,0.954 0.245,1.646 0.474,2.083c0.972,-1.524 3.573,-5.194 6.835,-6.545c0.153,-0.063 0.331,-0.047 0.469,0.046c0.138,0.093 0.222,0.249 0.222,0.416c0,1.079 -0.463,2.806 -1.464,4.402c0.594,-0.114 1.169,-0.328 1.718,-0.639c0.239,-0.138 0.544,-0.053 0.682,0.188c0.136,0.24 0.052,0.546 -0.188,0.682c-1.016,0.575 -2.108,0.867 -3.248,0.867c-0.192,0 -0.367,-0.11 -0.451,-0.283c-0.083,-0.174 -0.06,-0.379 0.06,-0.529c1.054,-1.316 1.598,-2.799 1.798,-3.845c-3.375,1.881 -5.945,6.355 -5.972,6.404c-0.077,0.136 -0.213,0.228 -0.368,0.248c-0.151,0.02 -0.31,-0.03 -0.42,-0.142c-0.034,-0.034 -0.633,-0.646 -0.952,-1.829c-1.179,2.373 -1.195,4.452 -1.195,4.476c0,0.22 -0.144,0.414 -0.354,0.479c-0.049,0.014 -0.098,0.021 -0.146,0.021z" fill="#1f212b"></path><path d="M31.5,30v0.375c0,0.801 0.311,1.503 0.589,1.928c0.552,0.844 1.869,1.958 3.411,2.624c0,0 1.5,0.573 2.5,0.573c1,0 2.5,-0.578 2.5,-0.578c1.549,-0.666 2.861,-1.777 3.411,-2.619c0.278,-0.425 0.589,-1.127 0.589,-1.928v-0.375c0.357,-0.12 0.693,-0.499 0.829,-0.935c0.124,-0.387 0.552,-2.644 0.545,-2.823c-0.011,-0.296 -0.112,-0.51 -0.219,-0.652c-0.064,-0.084 -0.354,-0.474 -0.354,-0.474c0,0 0.699,-8.116 -7.301,-8.116c-8,0 -7.219,8.092 -7.219,8.092c0,0 -0.372,0.414 -0.436,0.498c-0.107,0.142 -0.208,0.357 -0.219,0.652c-0.006,0.179 0.421,2.435 0.545,2.823c0.136,0.436 0.472,0.815 0.829,0.935z" fill="#ead6c7"></path><path d="M43.645,15.52c-0.646,-1.218 -2.359,-2.52 -5.32,-2.52c-5.837,0 -9.325,4.429 -9.325,8.711c0,3.643 2.127,5.14 2.218,5.202c0.084,0.058 0.183,0.087 0.282,0.087c0.08,0 0.16,-0.02 0.233,-0.058c0.164,-0.087 0.267,-0.256 0.267,-0.442c0,-0.016 0.006,-1.18 0.42,-2.505c0.334,0.564 0.75,0.883 0.78,0.905c0.113,0.085 0.256,0.118 0.397,0.09c0.139,-0.027 0.26,-0.112 0.333,-0.234c0.02,-0.034 1.844,-3.066 4.045,-4.423c-0.059,0.809 -0.251,1.93 -0.891,2.89c-0.102,0.153 -0.112,0.351 -0.025,0.514c0.087,0.161 0.256,0.263 0.441,0.263c0.709,0 2.656,-0.55 3.851,-2.76c0.295,0.684 0.738,1.235 1.172,1.777c0.76,0.947 1.477,1.841 1.477,3.483c0,0.188 0.105,0.36 0.273,0.445c0.168,0.087 0.369,0.071 0.521,-0.041c0.09,-0.065 2.206,-1.644 2.206,-5.193c0,-3.296 -1.394,-5.828 -3.355,-6.191z" fill="#b07454"></path><path d="M37.981,36c-2.658,0 -5.373,-1.987 -6.311,-3.423c-0.201,-0.308 -0.67,-1.141 -0.67,-2.202v-0.068c-0.363,-0.237 -0.663,-0.635 -0.806,-1.092c-0.101,-0.315 -0.578,-2.689 -0.567,-2.99c0.016,-0.443 0.182,-0.753 0.318,-0.935c0.071,-0.093 0.464,-0.532 0.464,-0.532l0.744,0.668c0,0.001 -0.348,0.386 -0.413,0.47c-0.046,0.062 -0.108,0.181 -0.115,0.365c0.017,0.232 0.413,2.313 0.521,2.652c0.101,0.32 0.339,0.555 0.513,0.613c0.204,0.069 0.341,0.259 0.341,0.474v0.375c0,0.792 0.355,1.422 0.508,1.655c0.811,1.24 3.285,2.97 5.473,2.97c2.299,0 4.718,-1.756 5.512,-2.97c0.152,-0.233 0.507,-0.863 0.507,-1.655v-0.375c0,-0.215 0.137,-0.405 0.34,-0.474c0.173,-0.059 0.412,-0.293 0.512,-0.61c0.109,-0.343 0.505,-2.423 0.522,-2.684c-0.007,-0.156 -0.069,-0.275 -0.119,-0.343c-0.061,-0.079 -0.356,-0.475 -0.356,-0.475l0.803,-0.598l0.349,0.467c0.14,0.188 0.306,0.497 0.322,0.939c0.011,0.302 -0.466,2.676 -0.568,2.994c-0.143,0.454 -0.442,0.852 -0.805,1.089v0.068c0,1.061 -0.469,1.894 -0.67,2.202c-0.938,1.438 -3.667,3.425 -6.349,3.425z" fill="#1f212b"></path><path d="M42.75,23c-0.147,0 -0.293,-0.064 -0.392,-0.189c-0.388,-0.488 -0.754,-0.985 -1.008,-1.573c-0.135,0.25 -0.284,0.486 -0.446,0.709c-0.163,0.224 -0.475,0.272 -0.698,0.11c-0.223,-0.162 -0.273,-0.475 -0.11,-0.698c0.407,-0.561 0.717,-1.229 0.921,-1.988c0.065,-0.242 0.304,-0.399 0.548,-0.366c0.249,0.032 0.435,0.244 0.435,0.495c0,1.159 0.495,1.875 1.142,2.689c0.172,0.216 0.136,0.53 -0.081,0.702c-0.092,0.074 -0.202,0.109 -0.311,0.109z" fill="#1f212b"></path><path d="M31.5,27c-0.099,0 -0.198,-0.029 -0.282,-0.087c-0.091,-0.062 -2.218,-1.559 -2.218,-5.202c0,-4.282 3.488,-8.711 9.325,-8.711c2.961,0 4.674,1.302 5.32,2.52c1.961,0.363 3.355,2.895 3.355,6.191c0,3.549 -2.116,5.128 -2.206,5.193c-0.152,0.112 -0.353,0.128 -0.521,0.041c-0.168,-0.085 -0.273,-0.257 -0.273,-0.445c0,-0.662 -0.116,-1.233 -0.364,-1.799c-0.111,-0.253 0.003,-0.548 0.256,-0.659c0.255,-0.11 0.548,0.004 0.659,0.257c0.152,0.346 0.266,0.701 0.34,1.069c0.507,-0.684 1.109,-1.874 1.109,-3.657c0,-2.875 -1.171,-5.124 -2.725,-5.231c-0.19,-0.014 -0.356,-0.134 -0.429,-0.311c-0.407,-1.001 -1.834,-2.169 -4.521,-2.169c-5.211,0 -8.325,3.921 -8.325,7.711c0,1.814 0.59,2.99 1.093,3.662c0.116,-0.832 0.377,-2.005 0.966,-3.108c0.108,-0.203 0.34,-0.305 0.563,-0.25c0.222,0.055 0.378,0.256 0.378,0.485c0,0.506 0.214,0.916 0.42,1.194c0.763,-1.144 2.674,-3.734 4.887,-4.656c0.155,-0.063 0.331,-0.048 0.47,0.046c0.14,0.093 0.223,0.249 0.223,0.416c0,0.578 0,1.922 -0.551,3.267c0.21,-0.011 0.428,0.099 0.514,0.31c0.104,0.256 -0.019,0.548 -0.275,0.651c-0.664,0.27 -1.387,0.461 -1.629,0.009c-0.087,-0.163 -0.077,-0.36 0.025,-0.514c0.64,-0.96 0.833,-2.081 0.891,-2.89c-2.201,1.356 -4.025,4.389 -4.045,4.423c-0.073,0.122 -0.193,0.207 -0.333,0.234c-0.141,0.028 -0.284,-0.005 -0.397,-0.09c-0.029,-0.022 -0.445,-0.341 -0.78,-0.905c-0.414,1.325 -0.42,2.489 -0.42,2.505c0,0.186 -0.103,0.355 -0.267,0.442c-0.073,0.038 -0.153,0.058 -0.233,0.058z" fill="#1f212b"></path><path d="M55.5,30v0.375c0,0.801 0.311,1.503 0.589,1.928c0.552,0.844 1.869,1.958 3.411,2.624c0,0 1.5,0.573 2.5,0.573c1,0 2.5,-0.578 2.5,-0.578c1.549,-0.666 2.861,-1.777 3.411,-2.619c0.278,-0.425 0.589,-1.127 0.589,-1.928v-0.375c0.357,-0.12 0.693,-0.499 0.829,-0.935c0.124,-0.387 0.552,-2.644 0.545,-2.823c-0.011,-0.296 -0.112,-0.51 -0.219,-0.652c-0.064,-0.084 -0.354,-0.474 -0.354,-0.474c0,0 0.699,-8.116 -7.301,-8.116c-8,0 -7.219,8.092 -7.219,8.092c0,0 -0.372,0.414 -0.436,0.498c-0.107,0.142 -0.208,0.357 -0.219,0.652c-0.006,0.179 0.421,2.435 0.545,2.823c0.136,0.436 0.472,0.815 0.829,0.935z" fill="#a77a61"></path><path d="M67.645,15.52c-0.646,-1.218 -2.359,-2.52 -5.32,-2.52c-5.837,0 -9.325,4.429 -9.325,8.711c0,3.643 2.127,5.14 2.218,5.202c0.084,0.058 0.183,0.087 0.282,0.087c0.08,0 0.16,-0.02 0.233,-0.058c0.164,-0.087 0.267,-0.256 0.267,-0.442c0,-0.016 0.006,-1.18 0.42,-2.505c0.334,0.564 0.75,0.883 0.78,0.905c0.113,0.085 0.256,0.118 0.397,0.09c0.139,-0.027 0.26,-0.112 0.333,-0.234c0.02,-0.034 1.844,-3.066 4.045,-4.423c-0.059,0.809 -0.251,1.93 -0.891,2.89c-0.102,0.153 -0.112,0.351 -0.025,0.514c0.087,0.161 0.256,0.263 0.441,0.263c0.709,0 2.656,-0.55 3.851,-2.76c0.295,0.684 0.738,1.235 1.172,1.777c0.76,0.947 1.477,1.841 1.477,3.483c0,0.188 0.105,0.36 0.273,0.445c0.168,0.087 0.369,0.071 0.521,-0.041c0.09,-0.065 2.206,-1.644 2.206,-5.193c0,-3.296 -1.394,-5.828 -3.355,-6.191z" fill="#565fa1"></path><path d="M61.981,36c-2.658,0 -5.373,-1.987 -6.311,-3.423c-0.201,-0.308 -0.67,-1.141 -0.67,-2.202v-0.068c-0.363,-0.237 -0.663,-0.635 -0.806,-1.092c-0.101,-0.315 -0.578,-2.689 -0.567,-2.99c0.016,-0.443 0.182,-0.753 0.318,-0.935c0.071,-0.093 0.464,-0.532 0.464,-0.532l0.744,0.668c0,0.001 -0.348,0.386 -0.413,0.47c-0.046,0.062 -0.108,0.181 -0.115,0.365c0.017,0.232 0.413,2.313 0.521,2.652c0.101,0.32 0.339,0.555 0.513,0.613c0.204,0.069 0.341,0.259 0.341,0.474v0.375c0,0.792 0.355,1.422 0.508,1.655c0.811,1.24 3.285,2.97 5.473,2.97c2.299,0 4.718,-1.756 5.512,-2.97c0.152,-0.233 0.507,-0.863 0.507,-1.655v-0.375c0,-0.215 0.137,-0.405 0.34,-0.474c0.173,-0.059 0.412,-0.293 0.512,-0.61c0.109,-0.343 0.505,-2.423 0.522,-2.684c-0.007,-0.156 -0.069,-0.275 -0.119,-0.343c-0.061,-0.079 -0.356,-0.475 -0.356,-0.475l0.803,-0.598l0.349,0.467c0.14,0.188 0.306,0.497 0.322,0.939c0.011,0.302 -0.466,2.676 -0.568,2.994c-0.143,0.454 -0.442,0.852 -0.805,1.089v0.068c0,1.061 -0.469,1.894 -0.67,2.202c-0.938,1.438 -3.667,3.425 -6.349,3.425z" fill="#1f212b"></path><path d="M66.75,23c-0.147,0 -0.293,-0.064 -0.392,-0.189c-0.388,-0.488 -0.754,-0.985 -1.008,-1.573c-0.135,0.25 -0.284,0.486 -0.446,0.709c-0.163,0.224 -0.475,0.272 -0.698,0.11c-0.223,-0.162 -0.273,-0.475 -0.11,-0.698c0.407,-0.561 0.717,-1.229 0.921,-1.988c0.065,-0.242 0.304,-0.399 0.548,-0.366c0.249,0.032 0.435,0.244 0.435,0.495c0,1.159 0.495,1.875 1.142,2.689c0.172,0.216 0.136,0.53 -0.081,0.702c-0.092,0.074 -0.202,0.109 -0.311,0.109z" fill="#1f212b"></path><path d="M55.5,27c-0.099,0 -0.198,-0.029 -0.282,-0.087c-0.091,-0.062 -2.218,-1.559 -2.218,-5.202c0,-4.282 3.488,-8.711 9.325,-8.711c2.961,0 4.674,1.302 5.32,2.52c1.961,0.363 3.355,2.895 3.355,6.191c0,3.549 -2.116,5.128 -2.206,5.193c-0.152,0.112 -0.353,0.128 -0.521,0.041c-0.168,-0.085 -0.273,-0.257 -0.273,-0.445c0,-0.662 -0.116,-1.233 -0.364,-1.799c-0.111,-0.253 0.003,-0.548 0.256,-0.659c0.255,-0.11 0.548,0.004 0.659,0.257c0.152,0.346 0.266,0.701 0.34,1.069c0.507,-0.684 1.109,-1.874 1.109,-3.657c0,-2.875 -1.171,-5.124 -2.725,-5.231c-0.19,-0.014 -0.356,-0.134 -0.429,-0.311c-0.407,-1.001 -1.834,-2.169 -4.521,-2.169c-5.211,0 -8.325,3.921 -8.325,7.711c0,1.814 0.59,2.99 1.093,3.662c0.116,-0.832 0.377,-2.005 0.966,-3.108c0.108,-0.203 0.34,-0.305 0.563,-0.25c0.222,0.055 0.378,0.256 0.378,0.485c0,0.506 0.214,0.916 0.42,1.194c0.763,-1.144 2.674,-3.734 4.887,-4.656c0.155,-0.063 0.331,-0.048 0.47,0.046c0.14,0.093 0.223,0.249 0.223,0.416c0,0.578 0,1.922 -0.551,3.267c0.21,-0.011 0.428,0.099 0.514,0.31c0.104,0.256 -0.019,0.548 -0.275,0.651c-0.664,0.27 -1.387,0.461 -1.629,0.009c-0.087,-0.163 -0.077,-0.36 0.025,-0.514c0.64,-0.96 0.833,-2.081 0.891,-2.89c-2.201,1.356 -4.025,4.389 -4.045,4.423c-0.073,0.122 -0.193,0.207 -0.333,0.234c-0.141,0.028 -0.284,-0.005 -0.397,-0.09c-0.029,-0.022 -0.445,-0.341 -0.78,-0.905c-0.414,1.325 -0.42,2.489 -0.42,2.505c0,0.186 -0.103,0.355 -0.267,0.442c-0.073,0.038 -0.153,0.058 -0.233,0.058z" fill="#1f212b"></path></g></g></svg>