<svg version="1.1" xmlns="http://www.w3.org/2000/svg" xmlns:xlink="http://www.w3.org/1999/xlink" width="64px" height="64px" viewBox="0,0,256,256"><g fill="none" fill-rule="nonzero" stroke="none" stroke-width="1" stroke-linecap="butt" stroke-linejoin="miter" stroke-miterlimit="10" stroke-dasharray="" stroke-dashoffset="0" font-family="none" font-weight="none" font-size="none" text-anchor="none" style="mix-blend-mode: normal"><g transform="scale(4,4)"><path d="M31,3c-15.46397,0 -28,12.53603 -28,28c0,15.46397 12.53603,28 28,28c15.46397,0 28,-12.53603 28,-28c0,-15.46397 -12.53603,-28 -28,-28z" fill="#c3ceea"></path><path d="M7.34,31c-1.18747,-0.00401 -2.31534,0.51979 -3.07839,1.42965c-0.76305,0.90987 -1.08239,2.11173 -0.87161,3.28035c2.28563,13.46288 13.94948,23.31343 27.605,23.31343c13.65552,0 25.31937,-9.85054 27.605,-23.31343c0.21047,-1.1669 -0.10762,-2.36703 -0.86841,-3.2765c-0.76079,-0.90947 -1.88587,-1.43454 -3.07159,-1.4335z" fill="#acb7d0"></path><path d="M31,37c6.57767,-0.0088 12.81421,2.92605 17,8c7.35929,-8.95916 6.50244,-22.09204 -1.95858,-30.01901c-8.46102,-7.92697 -21.62182,-7.92697 -30.08284,0c-8.46102,7.92697 -9.31787,21.05985 -1.95858,30.01901c4.18579,-5.07395 10.42233,-8.0088 17,-8z" fill="#85cbf8"></path><path d="M35,25l-6,12h6z" fill="#ed7899"></path><path d="M39.17,44h-16.25c-0.55228,0 -1,0.44772 -1,1c0,0.55228 0.44772,1 1,1h16.25c0.55228,0 1,-0.44772 1,-1c0,-0.55228 -0.44772,-1 -1,-1zM31.17,48h-6.25c-0.55228,0 -1,0.44772 -1,1c0,0.55228 0.44772,1 1,1h6.25c0.55228,0 1,-0.44772 1,-1c0,-0.55228 -0.44772,-1 -1,-1zM37.17,48h-2.25c-0.55228,0 -1,0.44772 -1,1c0,0.55228 0.44772,1 1,1h2.25c0.55228,0 1,-0.44772 1,-1c0,-0.55228 -0.44772,-1 -1,-1z" fill="#8d6c9f"></path><path d="M31,2c-16.01626,0 -29,12.98374 -29,29c0,16.01626 12.98374,29 29,29c16.01626,0 29,-12.98374 29,-29c0,-16.01626 -12.98374,-29 -29,-29zM31,58c-14.91169,0 -27,-12.08831 -27,-27c0,-14.91169 12.08831,-27 27,-27c14.91169,0 27,12.08831 27,27c0,14.91169 -12.08831,27 -27,27z" fill="#8d6c9f"></path><path d="M30,15v2c0,0.55228 0.44772,1 1,1c0.55228,0 1,-0.44772 1,-1v-2c0,-0.55228 -0.44772,-1 -1,-1c-0.55228,0 -1,0.44772 -1,1zM48,31c0,-0.55228 -0.44772,-1 -1,-1h-2c-0.55228,0 -1,0.44772 -1,1c0,0.55228 0.44772,1 1,1h2c0.55228,0 1,-0.44772 1,-1zM35.87,18.95c0.51085,0.20599 1.0921,-0.03992 1.3,-0.55l0.75,-1.85c0.1682,-0.50103 -0.08252,-1.04643 -0.5723,-1.24499c-0.48979,-0.19856 -1.04952,0.01828 -1.2777,0.49499l-0.75,1.85c-0.20599,0.51085 0.03992,1.0921 0.55,1.3zM44.36,35.32c-0.33545,-0.16057 -0.7323,-0.12172 -1.03024,0.10086c-0.29794,0.22258 -0.44775,0.59211 -0.38892,0.95933c0.05883,0.36722 0.31659,0.67145 0.66916,0.78981l1.85,0.75c0.33545,0.16057 0.7323,0.12172 1.03024,-0.10086c0.29794,-0.22258 0.44775,-0.59211 0.38892,-0.95933c-0.05883,-0.36722 -0.31659,-0.67145 -0.66916,-0.78981zM40,20.24c-0.38384,0.39765 -0.37265,1.03116 0.025,1.415c0.39765,0.38384 1.03116,0.37265 1.415,-0.025l1.39,-1.44c0.28132,-0.24857 0.39972,-0.63377 0.3066,-0.99744c-0.09313,-0.36367 -0.38209,-0.64455 -0.74825,-0.72732c-0.36617,-0.08277 -0.74785,0.04651 -0.98834,0.33476zM45.21,23.58l-1.83,0.81c-0.42742,0.19472 -0.66172,0.66067 -0.56314,1.11989c0.09858,0.45922 0.50346,0.78796 0.97314,0.79011c0.14149,-0.00066 0.28124,-0.03133 0.41,-0.09l1.8,-0.8c0.50534,-0.22368 0.73368,-0.81466 0.51,-1.32c-0.22368,-0.50534 -0.81466,-0.73368 -1.32,-0.51zM18,31c0,-0.55228 -0.44772,-1 -1,-1h-2c-0.55228,0 -1,0.44772 -1,1c0,0.55228 0.44772,1 1,1h2c0.55228,0 1,-0.44772 1,-1zM24.63,15.24c-0.51008,0.2079 -0.75599,0.78915 -0.55,1.3l0.75,1.85c0.22818,0.47671 0.78791,0.69355 1.2777,0.49499c0.48979,-0.19856 0.7405,-0.74396 0.5723,-1.24499l-0.75,-1.85c-0.2079,-0.51008 -0.78915,-0.75599 -1.3,-0.55zM16.17,38c0.12665,0.00031 0.25221,-0.02345 0.37,-0.07l1.85,-0.75c0.35256,-0.11836 0.61032,-0.42259 0.66916,-0.78981c0.05883,-0.36722 -0.09098,-0.73675 -0.38892,-0.95933c-0.29794,-0.22258 -0.69479,-0.26143 -1.03024,-0.10086l-1.85,0.75c-0.43521,0.18531 -0.68105,0.6502 -0.58922,1.11422c0.09184,0.46402 0.49623,0.80022 0.96922,0.80578zM21.27,21.93c0.40124,0.00249 0.76512,-0.23509 0.92423,-0.60344c0.15911,-0.36835 0.08264,-0.79614 -0.19423,-1.08656l-1.4,-1.44c-0.38384,-0.39765 -1.01735,-0.40884 -1.415,-0.025c-0.39765,0.38384 -0.40884,1.01735 -0.025,1.415l1.39,1.44c0.1895,0.19334 0.44929,0.30158 0.72,0.3zM18.62,24.39l-1.83,-0.81c-0.33262,-0.17732 -0.73668,-0.15254 -1.04514,0.06408c-0.30846,0.21663 -0.46891,0.5883 -0.41501,0.96135c0.0539,0.37306 0.31299,0.68411 0.67015,0.80457l1.83,0.81c0.12876,0.05867 0.26851,0.08934 0.41,0.09c0.46968,-0.00215 0.87457,-0.33089 0.97314,-0.79011c0.09858,-0.45922 -0.13572,-0.92516 -0.56314,-1.11989z" fill="#f9efde"></path><path d="M38.35,11.32c0.71623,0.2682 1.41727,0.57532 2.1,0.92c0.49429,0.24853 1.09647,0.04929 1.345,-0.445c0.24853,-0.49429 0.04929,-1.09647 -0.445,-1.345c-0.74791,-0.37492 -1.51572,-0.70875 -2.3,-1c-0.33939,-0.14971 -0.73376,-0.09926 -1.02452,0.13107c-0.29077,0.23033 -0.43015,0.60268 -0.3621,0.96732c0.06805,0.36464 0.33235,0.66166 0.68662,0.77161z" fill="#8d6c9f"></path><path d="M54,30c-0.30398,-6.55468 -3.39311,-12.66745 -8.49,-16.8c-0.42802,-0.3507 -1.0593,-0.28802 -1.41,0.14c-0.3507,0.42802 -0.28802,1.0593 0.14,1.41c8.30039,6.73376 10.20084,18.63634 4.41,27.62c-0.16119,0.2622 -0.43415,0.43556 -0.74,0.47c-0.31386,0.03145 -0.62542,-0.07851 -0.85,-0.3c-3.0525,-2.99565 -6.88447,-5.07447 -11.06,-6v-13.54c-0.00215,-0.46968 -0.33089,-0.87457 -0.79011,-0.97314c-0.45922,-0.09858 -0.92516,0.13572 -1.11989,0.56314l-6.09,13.62c-4.9366,0.627 -9.53315,2.84978 -13.09,6.33c-0.21964,0.22927 -0.53511,0.34061 -0.85,0.3c-0.3095,-0.03148 -0.58672,-0.2052 -0.75,-0.47c-4.32084,-6.67039 -4.50586,-15.2085 -0.47805,-22.05981c4.02781,-6.85131 11.57829,-10.8418 19.50805,-10.31019c0.53333,0 1.06,0.05333 1.58,0.16c0.55228,0.07732 1.06268,-0.30772 1.14,-0.86c0.07732,-0.55228 -0.30772,-1.06268 -0.86,-1.14c-0.57,-0.02 -1.2,-0.08 -1.73,-0.16c-6.34878,-0.4263 -12.58723,1.81751 -17.21,6.19c-8.08456,7.5967 -9.59443,19.88172 -3.59,29.21c0.48589,0.77887 1.30164,1.2924 2.21402,1.39378c0.91238,0.10138 1.82097,-0.22056 2.46598,-0.87378c8.15711,-7.95836 21.17289,-7.95836 29.33,0c0.56759,0.56061 1.33224,0.87652 2.13,0.88h0.34c0.90294,-0.10001 1.71192,-0.60379 2.2,-1.37c2.58169,-3.98906 3.85739,-8.68293 3.65,-13.43zM30.3,36l3.7,-8.29v8.51c-0.99419,-0.13813 -1.99629,-0.21161 -3,-0.22c-0.23,0 -0.46,0 -0.7,0z" fill="#8d6c9f"></path></g></g></svg>