<svg version="1.1" xmlns="http://www.w3.org/2000/svg" xmlns:xlink="http://www.w3.org/1999/xlink" width="48" height="48" viewBox="0,0,256,256"><g fill="none" fill-rule="nonzero" stroke="none" stroke-width="1" stroke-linecap="butt" stroke-linejoin="miter" stroke-miterlimit="10" stroke-dasharray="" stroke-dashoffset="0" font-family="none" font-weight="none" font-size="none" text-anchor="none" style="mix-blend-mode: normal"><g transform="scale(5.33333,5.33333)"><path d="M41,38c0,5 -4,5 -4,5h-27v-38h31c0,0 0,28 0,33z" fill="#c6cbe8"></path><path d="M14,12h3v3h-3zM20,12h17v3h-17zM14,18h3v3h-3zM20,18h17v3h-17zM14,24h3v3h-3zM20,24h17v3h-17z" fill="#7986cb"></path><path d="M33,38c0,-0.713 0,-3.793 0,-5h-16h-6h-4c0,1.207 0,4.287 0,5c0,2.762 1.238,5 4,5h26c-2.762,0 -4,-2.238 -4,-5z" fill="#3f51b5"></path></g></g></svg>