<svg version="1.1" xmlns="http://www.w3.org/2000/svg" xmlns:xlink="http://www.w3.org/1999/xlink" width="512px" height="512px" viewBox="0,0,256,256"><g fill="none" fill-rule="nonzero" stroke="none" stroke-width="1" stroke-linecap="butt" stroke-linejoin="miter" stroke-miterlimit="10" stroke-dasharray="" stroke-dashoffset="0" font-family="none" font-weight="none" font-size="none" text-anchor="none" style="mix-blend-mode: normal"><g transform="scale(0.5,0.5)"><path d="M245.819,107h11.116c3.31371,0 6,-2.68629 6,-6c0,-3.31371 -2.68629,-6 -6,-6h-11.116c-3.31371,0 -6,2.68629 -6,6c0,3.31371 2.68629,6 6,6z" fill="#0636ce"></path><path d="M177.125,456c11.59798,0 21,-9.40202 21,-21c0,-11.59798 -9.40202,-21 -21,-21c-11.59798,0 -21,9.40202 -21,21c0.01268,11.59273 9.40727,20.98732 21,21zM177.125,426c4.97056,0 9,4.02944 9,9c0,4.97056 -4.02944,9 -9,9c-4.97056,0 -9,-4.02944 -9,-9c0.00606,-4.96805 4.03195,-8.99394 9,-9z" fill="#0636ce"></path><path d="M417.1,47h-132.1v12h132.1c17.5547,-0.01507 31.81684,14.16749 31.9,31.722v13.278h-13.014c-3.31371,0 -6,2.68629 -6,6c0,3.31371 2.68629,6 6,6h13.014v269h-151v12h151v24.278c-0.08316,17.55451 -14.3453,31.73707 -31.9,31.722h-132.1v12h132.1c24.1789,0.00733 43.8091,-19.54327 43.9,-43.722v-330.556c-0.0909,-24.17873 -19.7211,-43.72933 -43.9,-43.722z" fill="#1ae5be"></path><path d="M416.918,116c3.31371,0 6,-2.68629 6,-6c0,-3.31371 -2.68629,-6 -6,-6h-10.5c-3.31371,0 -6,2.68629 -6,6c0,3.31371 2.68629,6 6,6z" fill="#1ae5be"></path><path d="M387.819,116c3.31371,0 6,-2.68629 6,-6c0,-3.31371 -2.68629,-6 -6,-6h-90.625c-3.31371,0 -6,2.68629 -6,6c0,3.31371 2.68629,6 6,6z" fill="#1ae5be"></path><path d="M361.708,425.056c0.0004,-8.15697 -4.91298,-15.51096 -12.44896,-18.63269c-7.53598,-3.12172 -16.21041,-1.39639 -21.97826,4.37146c-5.76785,5.76785 -7.49319,14.44228 -4.37146,21.97826c3.12172,7.53598 10.47572,12.44937 18.63269,12.44896c11.13212,-0.01267 20.15333,-9.03388 20.166,-20.166zM333.375,425.056c-0.0004,-3.30333 1.98916,-6.28163 5.04093,-7.54604c3.05177,-1.26441 6.5647,-0.56592 8.90066,1.76974c2.33595,2.33567 3.03487,5.84852 1.77083,8.90044c-1.26404,3.05192 -4.24209,5.04186 -7.54542,5.04186c-4.50806,-0.00496 -8.16149,-3.65794 -8.167,-8.166z" fill="#1ae5be"></path><path d="M303,81c0,-25.4051 -20.5949,-46 -46,-46h-160c-25.4051,0 -46,20.5949 -46,46v350c0,25.4051 20.5949,46 46,46h160c25.4051,0 46,-20.5949 46,-46zM97.125,47h160c9.00132,0.01484 17.62788,3.60573 23.98106,9.98234c6.35317,6.37661 9.91226,15.01635 9.89394,24.01766v14h-13.875c-3.31371,0 -6,2.68629 -6,6c0,3.31371 2.68629,6 6,6h13.875v286h-228v-286h163.125c3.31371,0 6,-2.68629 6,-6c0,-3.31371 -2.68629,-6 -6,-6h-163.125v-14c0.07981,-18.79331 15.33152,-33.98916 34.125,-34zM63,405h228v26c0.01832,9.00131 -3.54077,17.64105 -9.89394,24.01766c-6.35317,6.37661 -14.97973,9.9675 -23.98106,9.98234h-160c-18.79348,-0.01084 -34.04519,-15.20669 -34.125,-34z" fill="#0636ce"></path></g></g></svg>