<svg version="1.1" xmlns="http://www.w3.org/2000/svg" xmlns:xlink="http://www.w3.org/1999/xlink" width="64px" height="64px" viewBox="0,0,256,256"><g fill="none" fill-rule="nonzero" stroke="none" stroke-width="none" stroke-linecap="none" stroke-linejoin="none" stroke-miterlimit="10" stroke-dasharray="" stroke-dashoffset="0" font-family="none" font-weight="none" font-size="none" text-anchor="none" style="mix-blend-mode: normal"><g transform="scale(4,4)"><ellipse cx="32" cy="61" rx="19" ry="3" fill="#000000" stroke="none" stroke-width="1" stroke-linecap="butt" stroke-linejoin="miter" opacity="0.3"></ellipse><path d="M43.008,55h-22.016c-2.209,0 -4,-1.791 -4,-4v-38c0,-2.209 1.791,-4 4,-4h22.017c2.209,0 4,1.791 4,4v38c-0.001,2.209 -1.791,4 -4.001,4z" fill="#37d0ee" stroke="none" stroke-width="1" stroke-linecap="butt" stroke-linejoin="miter"></path><path d="M35.558,12h-7.117c-0.861,0 -1.625,-0.551 -1.897,-1.368l-0.544,-1.632h12l-0.544,1.632c-0.272,0.817 -1.037,1.368 -1.898,1.368z" fill="#008aa9" stroke="none" stroke-width="1" stroke-linecap="butt" stroke-linejoin="miter"></path><path d="M20.501,14.5v7" fill="none" stroke="#ffffff" stroke-width="3" stroke-linecap="round" stroke-linejoin="round"></path><path d="M46.954,51v-21c-2.762,0 -5,2.238 -5,5v14c0,0.552 -0.448,1 -1,1h-9c-2.762,0 -5,2.238 -5,5h16c2.209,0 4,-1.791 4,-4z" fill="#000000" stroke="none" stroke-width="1" stroke-linecap="butt" stroke-linejoin="miter" opacity="0.15"></path><path d="M17.004,13v18c2.762,0 5,-2.238 5,-5v-11.348c0,-0.42 0.264,-0.795 0.66,-0.934c1.946,-0.685 3.34,-2.539 3.34,-4.718h-5c-2.209,0 -4,1.791 -4,4z" fill="#ffffff" stroke="none" stroke-width="1" stroke-linecap="butt" stroke-linejoin="miter" opacity="0.3"></path><path d="M37.5,28.5l-2,2" fill="none" stroke="#9c34c2" stroke-width="3" stroke-linecap="round" stroke-linejoin="miter"></path><path d="M25.5,28.5l2,2" fill="none" stroke="#9c34c2" stroke-width="3" stroke-linecap="round" stroke-linejoin="miter"></path><path d="M31.5,29c-4.694,0 -8.5,3.806 -8.5,8.5v0.5c0,1.105 0.895,2 2,2h13c1.105,0 2,-0.895 2,-2v-0.5c0,-4.694 -3.806,-8.5 -8.5,-8.5zM27.5,37c-0.828,0 -1.5,-0.672 -1.5,-1.5c0,-0.828 0.672,-1.5 1.5,-1.5c0.828,0 1.5,0.672 1.5,1.5c0,0.828 -0.672,1.5 -1.5,1.5zM35.5,37c-0.828,0 -1.5,-0.672 -1.5,-1.5c0,-0.828 0.672,-1.5 1.5,-1.5c0.828,0 1.5,0.672 1.5,1.5c0,0.828 -0.672,1.5 -1.5,1.5z" fill="#9c34c2" stroke="none" stroke-width="1" stroke-linecap="butt" stroke-linejoin="miter"></path></g></g></svg>